Coordinates

Units are S.I. units (second, meters, Newtons, ...)
If the header above contains a line with 'inDegrees', this indicates whether rotational values are in degrees (yes) or radians (no).

inDegrees=no
nColumns=21
nRows=9
DataType=double
version=3
OpenSimVersion=4.6-2026-03-31-d6972f9e6
endheader
time	/jointset/ground_pelvis/pelvis_tilt/value	/jointset/ground_pelvis/pelvis_list/value	/jointset/ground_pelvis/pelvis_rotation/value	/jointset/ground_pelvis/pelvis_tx/value	/jointset/ground_pelvis/pelvis_ty/value	/jointset/ground_pelvis/pelvis_tz/value	/jointset/hip_r/hip_flexion_r/value	/jointset/hip_r/hip_adduction_r/value	/jointset/hip_r/hip_rotation_r/value	/jointset/walker_knee_r/knee_angle_r/value	/jointset/patellofemoral_r/knee_angle_r_beta/value	/jointset/ankle_r/ankle_angle_r/value	/jointset/subtalar_r/subtalar_angle_r/value	/jointset/hip_l/hip_flexion_l/value	/jointset/hip_l/hip_adduction_l/value	/jointset/hip_l/hip_rotation_l/value	/jointset/walker_knee_l/knee_angle_l/value	/jointset/patellofemoral_l/knee_angle_l_beta/value	/jointset/ankle_l/ankle_angle_l/value	/jointset/subtalar_l/subtalar_angle_l/value
144.996	-0.1662730306727095	-0.03878491541746035	-0.09522934342954402	1.164819013409822	0.9379843658002434	-0.3430706721086729	0.5471752005621815	0.0543787664548837	0.01752775690517547	0.2723304629738956	0.2723304614400163	-0.0696695413953364	-0.2002302762096647	-0.2493721352843708	-0.04637344525329687	-0.1963084531988475	0.2765574493989309	0.2765574484067762	-0.4500227114703216	-0.1738747619945851
145	-0.166047639082005	-0.03564195651667085	-0.09509028998305621	1.165721361621644	0.9382855789749885	-0.3426756753430318	0.5385005264490662	0.05275539375378822	0.01550665518992174	0.2381295603562689	0.2381295588388587	-0.06202780281729806	-0.1862672698399921	-0.25210198466922	-0.04442206663410889	-0.1971948501539831	0.2894245555188381	0.289424554633358	-0.4634321610518506	-0.1793603925657687
145.004	-0.1656454310639185	-0.03217275513509068	-0.09480448794949808	1.166538120780827	0.9384115900960585	-0.3422826689522352	0.530138352663643	0.05073886424575807	0.01290929629488654	0.2066149378876045	0.2066149364249568	-0.05461098696274432	-0.1734780193513672	-0.2538875693757372	-0.04216294734830486	-0.1966748982072316	0.3044683825156745	0.3044683817717896	-0.4753217571424788	-0.1866502312054327
145.008	-0.1650334614686246	-0.02849189265447149	-0.09439215129737229	1.167266967852849	0.9383715494295607	-0.3418901254164501	0.5220481810199472	0.04846125380939161	0.009734408929078057	0.1778674200351817	0.1778674186621016	-0.04745360108418165	-0.1619321197302211	-0.2548017399842699	-0.03970649963378781	-0.1948021372096158	0.3215947023915565	0.3215947018177905	-0.485788845145449	-0.1955625142755118
145.012	-0.164177062524145	-0.02471496626793518	-0.09387224614326307	1.167906757017968	0.93817511818291	-0.3414969641681309	0.5141817112652175	0.04605137778595873	0.006001049129363062	0.1519471903341559	0.1519471890802698	-0.04059434323565134	-0.1516846052345019	-0.2549228341625551	-0.03716315967214077	-0.191662495472115	0.3406960269324454	0.3406960265491411	-0.4949454978762114	-0.2058904206532958
145.016	-0.163040879029901	-0.02095612676845178	-0.09326328933002345	1.168457407025126	0.9378320911246393	-0.3411024744059591	0.5064867404331547	0.04363242008665722	0.001748037800445783	0.1288967529084514	0.1288967517969593	-0.0340750245256895	-0.1427799299152414	-0.254332897810097	-0.03464179586025377	-0.1873732500600763	0.3616543335852218	0.3616543334032685	-0.5029146049445713	-0.2174105637261316
145.02	-0.161590022000521	-0.01732603296610376	-0.09258429032101097	1.168919746575113	0.9373520407890318	-0.3407062040299743	0.4989111651664317	0.04132032021035763	-0.002967308620057892	0.1087440812141264	0.1087440802609356	-0.02793902677384968	-0.1352561646178044	-0.2531158864536827	-0.03224864578550624	-0.1820810138643808	0.3843439121817402	0.3843439122018977	-0.5098259327320785	-0.2298917745686069
145.024	-0.159791306230882	-0.01393019034782755	-0.09185581144941392	1.169295324409572	0.9367439941902949	-0.3403078186384514	0.4914069232238816	0.03922287270933979	-0.008070960178242648	0.09150579262562479	0.09150579183887365	-0.02222936156506624	-0.1291491400324685	-0.2513558886169031	-0.030086679438099	-0.1759588266505418	0.4086342131412539	0.4086342133541133	-0.5158122553233456	-0.2431036598275996
145.028	-0.1576145562739272	-0.01086758820283062	-0.0911011423452756	1.169586191851816	0.9360161482370112	-0.3399069336364765	0.4839337433150105	0.0374394352897526	-0.01347418145597426	0.07719019902304675	0.07719019840307562	-0.01698643589316002	-0.1244962744362121	-0.2491353737964865	-0.02825522801531099	-0.1692024894179543	0.4343926078466332	0.4343926082332315	-0.5210055531365989	-0.2568243607569112
